<svg width="160" height="160" viewBox="0 0 160 160" fill="none" xmlns="http://www.w3.org/2000/svg">
  <defs>
    <linearGradient id="shieldGradient" x1="0%" y1="0%" x2="100%" y2="100%">
      <stop offset="0%" style="stop-color:#4F46E5;stop-opacity:1" />
      <stop offset="50%" style="stop-color:#6366F1;stop-opacity:1" />
      <stop offset="100%" style="stop-color:#8B5CF6;stop-opacity:1" />
    </linearGradient>
    <linearGradient id="lockGradient" x1="0%" y1="0%" x2="100%" y2="100%">
      <stop offset="0%" style="stop-color:#FFFFFF;stop-opacity:1" />
      <stop offset="100%" style="stop-color:#E0E7FF;stop-opacity:1" />
    </linearGradient>
  </defs>
  
  <!-- Shield Background -->
  <path d="M80 20 L120 35 L120 75 Q120 110 100 130 Q80 150 60 130 Q40 110 40 75 L40 35 Z" fill="url(#shieldGradient)" stroke="#312E81" stroke-width="2"/>
  
  <!-- Firewall Layers -->
  <path d="M50 50 L110 50" stroke="#FFFFFF" stroke-width="2" stroke-opacity="0.3"/>
  <path d="M50 70 L110 70" stroke="#FFFFFF" stroke-width="2" stroke-opacity="0.3"/>
  <path d="M50 90 L110 90" stroke="#FFFFFF" stroke-width="2" stroke-opacity="0.3"/>
  
  <!-- Lock Icon -->
  <rect x="65" y="75" width="30" height="25" rx="2" fill="url(#lockGradient)"/>
  <path d="M70 75 L70 65 Q70 60 75 60 L85 60 Q90 60 90 65 L90 75" stroke="url(#lockGradient)" stroke-width="3" fill="none"/>
  <circle cx="80" cy="87" r="3" fill="#4F46E5"/>
  
  <!-- AI Sparkle -->
  <circle cx="100" cy="45" r="3" fill="#FFFFFF" opacity="0.9"/>
  <circle cx="60" cy="45" r="2" fill="#FFFFFF" opacity="0.7"/>
  <circle cx="110" cy="65" r="2" fill="#FFFFFF" opacity="0.7"/>
</svg>
